PathFileType	4	(X/Y/Z)	D:\Long Term Storage\D'Arcy Smith\Coord16.trc
DataRate	CameraRate	NumFrames	NumMarkers	Units	OrigDataRate	OrigDataStartFrame	OrigNumFrames
120.00	120.00	      122	4	mm	120.00	1817	      4844
Frame#	Time	M1			M2			M3			M4			
		X1	Y1	Z1	X2	Y2	Z2	X3	Y3	Z3	X4	Y4	Z4	

1817	15.133	1010.00323	353.14261	547.20361	1606.18030	318.86783	210.15503							
1818	15.142	1010.71075	349.13687	537.49542	1606.21350	312.04150	222.55141							
1819	15.150	1010.76208	345.03653	528.25684	1607.16992	304.84152	235.17194							
1820	15.158	1012.70404	341.57928	516.13641	1606.46460	297.90060	248.59998							
1821	15.167	1013.88470	338.04904	504.90186	1607.55725	291.45901	262.29947							
1822	15.175	1015.16284	334.76477	493.15442	1607.31238	285.26315	277.08316							
1823	15.183	1016.82697	331.97250	480.81439	1607.51355	279.52368	291.73907							
1824	15.192	1018.68927	329.33786	468.19321	1607.83569	274.27795	306.99649							
1825	15.200	1020.85278	327.10388	454.94547	1607.58289	269.78030	322.75217							
1826	15.208	1023.13605	325.27960	441.59372	1607.64758	266.29480	338.81049							
1827	15.217	1025.42761	323.98441	428.16983	1606.93567	263.47922	354.26343							
1828	15.225	1028.04993	323.01489	414.17847	1606.71838	261.71518	370.54749							
1829	15.233	1030.60254	322.72769	400.37668	1606.30322	260.36697	386.73334							
1830	15.242	1034.08997	322.88138	385.77286	1606.19995	260.17172	402.99072							
1831	15.250	1037.37000	323.43256	371.35632	1605.97925	260.34381	419.01309							
1832	15.258	1040.47217	324.51993	357.54547	1606.28467	260.81650	434.93304							
1833	15.267	1043.70483	326.24094	341.88193	1606.38501	262.62518	450.31631							
1834	15.275	1047.42847	328.93362	327.60529	1606.34717	264.97552	465.34903							
1835	15.283	1051.67493	331.76709	312.35648	1605.84204	267.66351	480.71738							
1836	15.292	1054.94800	335.03262	299.36716	1605.94958	271.44257	494.47968							
1837	15.300	1058.69226	338.37119	286.24475	1605.42542	275.66061	508.02350							
1838	15.308	1062.39746	342.12610	273.40295	1604.94287	279.85834	520.49915							
1839	15.317	1065.84583	346.18317	260.38153	1604.93420	284.67639	532.38324							
1840	15.325	1069.58386	350.66614	248.62051	1605.01672	289.92023	543.93085							
1841	15.333	1073.92505	355.58163	236.62656	1605.02161	295.45673	554.48712							
1842	15.342	1077.55078	360.44299	225.10155	1605.28894	300.74054	564.17560							
1843	15.350	1080.93018	365.39078	214.54051	1604.52539	306.33997	573.29852							
1844	15.358	1084.23279	370.42236	204.46600	1604.78052	311.51385	581.46613							
1845	15.367	1087.52234	375.46362	195.08206	1604.85266	317.19406	588.37585							
1846	15.375	1090.53198	380.37900	186.06602	1605.27332	322.07202	594.83105							
1847	15.383	1093.43469	385.13889	177.90335	1605.70581	326.69128	600.45752							
1848	15.392	1096.09265	389.88705	170.24399	1605.76904	330.74442	605.18756							
1849	15.400	1098.41553	394.29950	163.07187	1606.40967	334.63803	609.12183							
1850	15.408	1100.92786	398.61371	156.73141	1606.94482	337.86569	612.34875							
1851	15.417	1102.98193	402.44684	150.85414	1607.52844	340.43298	614.62579							
1852	15.425	1104.87854	406.02631	145.75452	1608.11707	342.75455	616.15625							
1853	15.433	1106.50452	409.24649	141.11873	1609.07849	344.10590	617.11072							
1854	15.442	1107.99951	411.96133	137.23192	1609.95764	345.04260	617.23322							
1855	15.450	1109.37122	414.51065	133.93355	1610.88940	345.38766	616.54688							
1856	15.458	1110.34131	416.39764	131.29584	1611.87878	345.18558	615.14471							
1857	15.467	1111.31909	417.97113	129.16740	1613.04224	344.55222	612.99554							
1858	15.475	1112.17554	418.88449	127.49062	1614.03125	343.25116	610.10718							
1859	15.483	1111.79187	419.16214	126.26096	1615.11121	341.46500	606.58862							
1860	15.492	1112.90234	419.32452	125.93864	1615.94348	339.42041	602.18152							
1861	15.500	1113.05237	418.88052	126.00838	1616.71082	336.70074	597.19305							
1862	15.508	1113.12244	418.02411	126.57253	1617.90857	333.66241	591.55927							
1863	15.517	1112.70142	416.35358	127.76442	1618.50073	330.43405	585.17078							
1864	15.525	1112.81348	414.66437	129.28493	1618.83398	327.11453	577.92987							
1865	15.533	1112.28101	412.30130	131.49483	1619.37744	323.54483	570.26801							
1866	15.542	1111.66199	409.64944	134.18950	1619.46936	319.63629	562.32910							
1867	15.550	1111.08423	406.42242	137.28456	1620.68079	315.35733	553.13922							
1868	15.558	1110.07813	402.98224	140.98570	1620.46484	312.04688	543.48584							
1869	15.567	1109.35022	399.17563	145.01921	1620.63135	308.18546	533.13367							
1870	15.575	1108.15222	395.03223	149.68591	1620.47070	304.97864	522.37903							
1871	15.583	1107.11096	390.62881	154.66945	1620.68860	301.81485	511.08282							
1872	15.592	1106.14441	386.04456	160.12723	1620.02844	298.56821	499.09460							
1873	15.600	1104.37439	380.85815	166.19075	1619.65942	295.93381	486.57730							
1874	15.608	1103.35742	376.02020	172.46974	1619.05713	293.69684	473.66504							
1875	15.617	1102.12683	370.88147	179.41225	1618.05469	292.26593	460.70334							
1876	15.625	1100.79004	365.69321	186.71051	1617.50757	290.35168	446.44229							
1877	15.633	1099.54541	360.50226	194.43900	1616.43274	288.94943	431.77188							
1878	15.642	1098.06128	355.12729	202.67488	1615.35876	288.46378	417.37799							
1879	15.650	1096.93555	349.79819	211.42863	1614.31543	289.30835	404.07739							
1880	15.658	1095.09595	344.81613	220.43781	1613.37231	290.07523	389.56979							
1881	15.667	1093.84766	339.94342	229.68649	1612.39392	290.79401	373.88190							
1882	15.675	1093.21899	335.25436	239.37270	1610.76733	293.35141	359.41837							
1883	15.683	1091.46521	330.84094	249.46996	1608.97900	295.51508	344.08432							
1884	15.692	1090.43567	326.59805	259.83057	1609.25110	297.30713	329.94330							
1885	15.700	1089.40198	322.68036	270.60150	1608.05127	301.23065	315.74603							
1886	15.708	1088.41101	318.98785	281.63516	1606.94873	305.01633	301.24405							
1887	15.717	1088.04846	316.01526	292.71988	1606.24768	309.18713	287.50266							
1888	15.725	1086.73535	312.53073	305.28699	1605.25989	314.21265	273.93015							
1889	15.733	1086.28748	310.57568	315.22943	1604.60388	319.16309	260.58859							
1890	15.742	1085.32190	308.61847	327.81989	1603.88867	324.29279	247.44717							
1891	15.750	1084.83276	307.04718	339.24619	1603.41284	330.04904	235.23436							
1892	15.758	1084.93164	306.14120	348.69839	1602.89172	335.83920	223.21327							
1893	15.767	1083.96375	304.65570	362.97919	1602.65613	341.50348	211.74672							
1894	15.775	1083.79602	304.32755	374.05850	1602.68982	347.74371	200.58147							
1895	15.783	1083.77380	304.37357	384.88599	1602.36121	353.45819	190.10881							
1896	15.792	1083.74646	304.70435	395.33551	1602.45972	359.79745	180.16866							
1897	15.800	1084.02246	305.25919	404.88293	1602.19800	366.06085	170.58391							
1898	15.808	1084.14001	305.83279	414.33459	1602.33313	371.95044	161.68513							
1899	15.817	1084.03552	306.61923	423.76605	1603.04736	377.77512	153.63353							
1900	15.825	1084.42834	307.59253	432.03622	1603.50391	383.49323	145.92747							
1901	15.833	1084.76538	308.49582	439.86673	1603.87573	388.96603	138.92497							
1902	15.842	1084.99670	309.57922	447.40479	1603.89087	394.50571	132.14201							
1903	15.850	1085.51294	310.59927	454.10342	1605.21936	399.26086	126.49326							
1904	15.858	1085.67944	311.60318	460.15366	1605.71753	404.06125	121.10602							
1905	15.867	1085.97839	312.55951	465.36548	1606.43103	408.41461	116.34733							
1906	15.875	1086.47400	313.27051	470.35144	1607.17932	412.52661	112.13242							
1907	15.883	1086.63220	313.78946	474.75192	1607.83472	416.15353	108.50707							
1908	15.892	1086.95923	314.13281	478.50421	1608.57813	419.35394	105.25095							
1909	15.900	1087.04773	314.48605	481.74045	1609.34644	422.14169	102.48478							
1910	15.908	1087.28662	314.83859	484.31912	1610.26685	424.45895	100.46581							
1911	15.917	1087.33398	315.15448	486.04568	1610.65869	426.28473	98.62609							
1912	15.925	1087.43933	315.40607	486.98422	1611.47278	427.60028	97.39143							
1913	15.933	1086.11780	314.90067	490.63446	1612.10010	428.31396	96.61068							
1914	15.942	1086.15698	314.83450	490.89545	1612.72205	428.65466	96.25379							
1915	15.950	1086.11108	314.62061	490.84573	1613.19885	428.43591	96.23970							
1916	15.958	1086.21826	313.62418	489.41507	1613.64673	427.68402	96.68021							
1917	15.967	1086.07312	313.17950	488.64719	1613.72290	426.42395	97.43289							
1918	15.975	1085.84692	312.56485	487.61362	1614.45752	424.79596	98.84777							
1919	15.983	1085.62830	312.07529	485.89243	1615.06653	422.66568	100.48952							
1920	15.992	1085.30859	311.60376	483.50128	1615.18140	419.97397	102.60254							
1921	16.000	1084.84998	311.13861	481.16037	1615.65942	416.80472	105.01028							
1922	16.008	1084.53772	310.54593	478.03140	1615.86243	413.29074	108.05254							
1923	16.017	1084.12219	310.02475	474.44653	1616.14758	409.14322	111.22233							
1924	16.025	1083.58167	309.73898	470.74963	1616.50854	404.72855	114.89825							
1925	16.033	1083.29858	309.33755	466.86020	1616.56580	399.81097	119.07774							
1926	16.042	1082.71240	309.12585	462.21176	1617.02844	394.39929	123.51759							
1927	16.050	1082.29602	309.09570	457.57535	1617.01794	388.56561	128.61227							
1928	16.058	1081.65271	308.92624	452.83087	1617.30396	382.51639	134.22179							
1929	16.067	1081.21680	308.93365	447.69641	1616.87292	375.77133	140.02420							
1930	16.075	1080.72546	309.18607	442.42572	1616.80005	369.11929	146.62039							
1931	16.083	1080.24609	309.36014	437.00989	1616.51038	361.94653	153.59299							
1932	16.092	1079.81958	309.79944	431.07953	1615.67126	355.03735	161.25752							
1933	16.100	1079.32654	310.42047	425.29950	1615.75977	347.10617	169.42772							
1934	16.108	1079.05908	311.03766	419.16885	1614.94019	339.45261	178.28413							
1935	16.117	1078.97424	311.87585	412.32950	1614.28955	331.66840	187.78662							
1936	16.125	1078.71313	312.91769	406.03336	1611.64319	324.52969	197.80290							
1937	16.133	1078.34412	313.86603	399.58032	1614.41284	315.92108	209.09428							
1938	16.142	1078.19238	315.31723	392.59491	1612.90576	308.29892	220.86726							
